# xmcd CD database file
#
# Track frame offsets:
#	150
#	25290
#	52877
#	81323
#	106382
#	135331
#	164345
#	188566
#	217745
#	243432
#	271101
#	299682
#
# Disc length: 4326 seconds
#
# Revision: 2
# Processed by: cddbd v1.5.2PL0 Copyright (c) Steve Scherf et al.
# Submitted via: CDex 1.51
#
DISCID=a010e40c
DTITLE=Bina and Pranav Mehta - Cosmic Dawn
DYEAR=2008
DGENRE=New Age
TTITLE0=Saawaraa
TTITLE1=Moko Kahaan
TTITLE2=Paayoji Main Ne 
TTITLE3=Prabhu Tum
TTITLE4=Mohe Piyaa Mile
TTITLE5=Yeh Binati
TTITLE6=Naveen
TTITLE7=Teerath
TTITLE8=Jo Tum Todo
TTITLE9=Moko Kahaan instr
TTITLE10=Paayoji Main Ne instr
TTITLE11=Prabhu Tum instr
EXTD=YEAR: 2008
EXTT0=
EXTT1=
EXTT2=
EXTT3=
EXTT4=
EXTT5=
EXTT6=
EXTT7=
EXTT8=
EXTT9=
EXTT10=
EXTT11=
PLAYORDER=
